<?xml version="1.0" encoding="UTF-8" standalone="no"?>
<!-- Created with Inkscape (http://www.inkscape.org/) -->

<svg
   width="58.482979mm"
   height="56.223564mm"
   viewBox="0 0 58.482979 56.223564"
   version="1.1"
   id="svg1"
   inkscape:version="1.4.2 (ebf0e940, 2025-05-08)"
   sodipodi:docname="dfa2.svg"
   xmlns:inkscape="http://www.inkscape.org/namespaces/inkscape"
   xmlns:sodipodi="http://sodipodi.sourceforge.net/DTD/sodipodi-0.dtd"
   xmlns="http://www.w3.org/2000/svg"
   xmlns:svg="http://www.w3.org/2000/svg">
  <sodipodi:namedview
     id="namedview1"
     pagecolor="#ffffff"
     bordercolor="#000000"
     borderopacity="0.25"
     inkscape:showpageshadow="2"
     inkscape:pageopacity="0.0"
     inkscape:pagecheckerboard="0"
     inkscape:deskcolor="#d1d1d1"
     inkscape:document-units="mm"
     inkscape:zoom="1.4281256"
     inkscape:cx="91.028406"
     inkscape:cy="104.68267"
     inkscape:window-width="1680"
     inkscape:window-height="1022"
     inkscape:window-x="0"
     inkscape:window-y="0"
     inkscape:window-maximized="1"
     inkscape:current-layer="layer1"
     showguides="false" />
  <defs
     id="defs1">
    <marker
       style="overflow:visible"
       id="DartArrow-8"
       refX="0"
       refY="0"
       orient="auto-start-reverse"
       inkscape:stockid="Dart arrow"
       markerWidth="1"
       markerHeight="1"
       viewBox="0 0 1 1"
       inkscape:isstock="true"
       inkscape:collect="always"
       preserveAspectRatio="xMidYMid">
      <path
         style="fill:context-stroke;fill-rule:evenodd;stroke:none"
         d="M 0,0 5,-5 -12.5,0 5,5 Z"
         transform="scale(-0.5)"
         id="path6-8" />
    </marker>
    <marker
       style="overflow:visible"
       id="DartArrow"
       refX="0"
       refY="0"
       orient="auto-start-reverse"
       inkscape:stockid="Dart arrow"
       markerWidth="1"
       markerHeight="1"
       viewBox="0 0 1 1"
       inkscape:isstock="true"
       inkscape:collect="always"
       preserveAspectRatio="xMidYMid">
      <path
         style="fill:context-stroke;fill-rule:evenodd;stroke:none"
         d="M 0,0 5,-5 -12.5,0 5,5 Z"
         transform="scale(-0.5)"
         id="path6" />
    </marker>
    <marker
       style="overflow:visible"
       id="marker47"
       refX="0"
       refY="0"
       orient="auto-start-reverse"
       inkscape:stockid="Dart arrow"
       markerWidth="1"
       markerHeight="1"
       viewBox="0 0 1 1"
       inkscape:isstock="true"
       inkscape:collect="always"
       preserveAspectRatio="xMidYMid">
      <path
         style="fill:context-stroke;fill-rule:evenodd;stroke:none"
         d="M 0,0 5,-5 -12.5,0 5,5 Z"
         transform="scale(-0.5)"
         id="path47" />
    </marker>
    <marker
       style="overflow:visible"
       id="marker56"
       refX="0"
       refY="0"
       orient="auto-start-reverse"
       inkscape:stockid="Dart arrow"
       markerWidth="1"
       markerHeight="1"
       viewBox="0 0 1 1"
       inkscape:isstock="true"
       inkscape:collect="always"
       preserveAspectRatio="xMidYMid">
      <path
         style="fill:context-stroke;fill-rule:evenodd;stroke:none"
         d="M 0,0 5,-5 -12.5,0 5,5 Z"
         transform="scale(-0.5)"
         id="path56" />
    </marker>
    <defs
       id="defs9305">
      <g
         id="g3912">
        <g
           id="g5786">
          <path
             d="M 3.328125,-3.015625 C 3.390625,-3.265625 3.625,-4.1875 4.3125,-4.1875 c 0.046875,0 0.296875,0 0.5,0.125 C 4.53125,-4 4.34375,-3.765625 4.34375,-3.515625 c 0,0.15625 0.109375,0.34375 0.375,0.34375 0.21875,0 0.53125,-0.171875 0.53125,-0.578125 0,-0.515625 -0.578125,-0.65625 -0.921875,-0.65625 -0.578125,0 -0.921875,0.53125 -1.046875,0.75 -0.25,-0.65625 -0.78125,-0.75 -1.078125,-0.75 -1.03125,0 -1.609375,1.28125 -1.609375,1.53125 0,0.109375 0.109375,0.109375 0.125,0.109375 0.078125,0 0.109375,-0.03125 0.125,-0.109375 0.34375,-1.0625 1,-1.3125 1.34375,-1.3125 0.1875,0 0.53125,0.09375 0.53125,0.671875 0,0.3125 -0.171875,0.96875 -0.53125,2.375 -0.15625,0.609375 -0.515625,1.03125 -0.953125,1.03125 -0.0625,0 -0.28125,0 -0.5,-0.125 0.25,-0.0625 0.46875,-0.265625 0.46875,-0.546875 0,-0.265625 -0.21875,-0.34375 -0.359375,-0.34375 -0.3125,0 -0.546875,0.25 -0.546875,0.578125 0,0.453125 0.484375,0.65625 0.921875,0.65625 0.671875,0 1.03125,-0.703125 1.046875,-0.75 0.125,0.359375 0.484375,0.75 1.078125,0.75 1.03125,0 1.59375,-1.28125 1.59375,-1.53125 0,-0.109375 -0.078125,-0.109375 -0.109375,-0.109375 -0.09375,0 -0.109375,0.046875 -0.140625,0.109375 -0.328125,1.078125 -1,1.3125 -1.3125,1.3125 -0.390625,0 -0.546875,-0.3125 -0.546875,-0.65625 0,-0.21875 0.046875,-0.4375 0.15625,-0.875 z m 0,0"
             id="path8551" />
        </g>
        <g
           id="g3568">
          <path
             d="m 4.84375,-3.796875 c 0.046875,-0.140625 0.046875,-0.15625 0.046875,-0.234375 0,-0.171875 -0.140625,-0.265625 -0.296875,-0.265625 -0.09375,0 -0.25,0.0625 -0.34375,0.203125 -0.015625,0.0625 -0.109375,0.359375 -0.140625,0.546875 -0.078125,0.25 -0.140625,0.53125 -0.203125,0.796875 l -0.453125,1.796875 c -0.03125,0.140625 -0.46875,0.84375 -1.125,0.84375 -0.5,0 -0.609375,-0.4375 -0.609375,-0.8125 C 1.71875,-1.375 1.890625,-2 2.21875,-2.875 2.375,-3.28125 2.421875,-3.390625 2.421875,-3.59375 c 0,-0.4375 -0.3125,-0.8125 -0.8125,-0.8125 -0.953125,0 -1.3125,1.453125 -1.3125,1.53125 0,0.109375 0.09375,0.109375 0.109375,0.109375 0.109375,0 0.109375,-0.03125 0.15625,-0.1875 0.28125,-0.9375 0.671875,-1.234375 1.015625,-1.234375 0.078125,0 0.25,0 0.25,0.3125 0,0.25 -0.109375,0.515625 -0.171875,0.703125 -0.40625,1.0625 -0.578125,1.625 -0.578125,2.09375 0,0.890625 0.625,1.1875 1.21875,1.1875 0.390625,0 0.71875,-0.171875 1,-0.453125 -0.125,0.515625 -0.25,1.015625 -0.640625,1.546875 -0.265625,0.328125 -0.640625,0.625 -1.09375,0.625 -0.140625,0 -0.59375,-0.03125 -0.765625,-0.421875 0.15625,0 0.296875,0 0.421875,-0.125 C 1.328125,1.203125 1.421875,1.0625 1.421875,0.875 1.421875,0.5625 1.15625,0.53125 1.0625,0.53125 0.828125,0.53125 0.5,0.6875 0.5,1.171875 c 0,0.5 0.4375,0.875 1.0625,0.875 1.015625,0 2.046875,-0.90625 2.328125,-2.03125 z m 0,0"
             id="path5712" />
        </g>
        <g
           id="g3333">
          <path
             d="m 5.1875,-1.578125 c 0.109375,0 0.28125,0 0.28125,-0.15625 0,-0.1875 -0.171875,-0.1875 -0.28125,-0.1875 H 1.03125 c -0.109375,0 -0.28125,0 -0.28125,0.171875 0,0.171875 0.15625,0.171875 0.28125,0.171875 z m 0,0"
             id="path1327" />
        </g>
        <g
           id="g3273">
          <path
             d="m 2.328125,-4.4375 c 0,-0.1875 0,-0.1875 -0.203125,-0.1875 -0.453125,0.4375 -1.078125,0.4375 -1.359375,0.4375 v 0.25 c 0.15625,0 0.625,0 1,-0.1875 v 3.546875 c 0,0.234375 0,0.328125 -0.6875,0.328125 H 0.8125 V 0 c 0.125,0 0.984375,-0.03125 1.234375,-0.03125 0.21875,0 1.09375,0.03125 1.25,0.03125 V -0.25 H 3.03125 c -0.703125,0 -0.703125,-0.09375 -0.703125,-0.328125 z m 0,0"
             id="path2635" />
        </g>
      </g>
    </defs>
  </defs>
  <g
     inkscape:label="Layer 1"
     inkscape:groupmode="layer"
     id="layer1"
     transform="translate(-63.7646, -92.075)">
    <ellipse
       style="fill:none;stroke:#000000;stroke-width:0.3;stroke-linecap:round;stroke-dasharray:none;stroke-opacity:1"
       id="ellipse16-4"
       cx="91.876366"
       cy="101.24462"
       rx="2.6357858"
       ry="2.6356723" />
    <ellipse
       style="fill:none;stroke:#000000;stroke-width:0.3;stroke-linecap:round;stroke-dasharray:none;stroke-opacity:1"
       id="ellipse17-1"
       cx="91.876366"
       cy="101.24462"
       rx="1.9689311"
       ry="1.9688455" />
    <path
       style="fill:none;fill-rule:evenodd;stroke:#ff0b00;stroke-width:0.3;stroke-linecap:round;stroke-linejoin:miter;stroke-dasharray:none;stroke-opacity:1;marker-end:url(#DartArrow-8)"
       d="m 91.876303,115.76304 v -8.21967"
       id="path19-7"
       inkscape:connector-type="polyline"
       inkscape:connector-curvature="0"
       sodipodi:nodetypes="cc" />
    <ellipse
       style="fill:none;stroke:#000000;stroke-width:0.3;stroke-linecap:round;stroke-dasharray:none;stroke-opacity:1"
       id="ellipse22"
       cx="91.876366"
       cy="120.18678"
       rx="2.6357858"
       ry="2.6356723" />
    <ellipse
       style="fill:none;stroke:#000000;stroke-width:0.3;stroke-linecap:round;stroke-dasharray:none;stroke-opacity:1"
       id="ellipse23"
       cx="91.876366"
       cy="120.18678"
       rx="1.9689311"
       ry="1.9688455" />
    <ellipse
       style="fill:none;stroke:#000000;stroke-width:0.3;stroke-linecap:round;stroke-dasharray:none;stroke-opacity:1"
       id="ellipse26"
       cx="91.876366"
       cy="139.12894"
       rx="2.6357858"
       ry="2.6356723" />
    <ellipse
       style="fill:none;stroke:#000000;stroke-width:0.3;stroke-linecap:round;stroke-dasharray:none;stroke-opacity:1"
       id="ellipse27"
       cx="91.876366"
       cy="139.12894"
       rx="1.9689311"
       ry="1.9688455" />
    <ellipse
       style="fill:none;stroke:#000000;stroke-width:0.3;stroke-linecap:round;stroke-dasharray:none;stroke-opacity:1"
       id="ellipse28"
       cx="-120.18669"
       cy="72.934196"
       rx="2.6357858"
       ry="2.6356723"
       transform="rotate(-90)" />
    <ellipse
       style="fill:none;stroke:#000000;stroke-width:0.3;stroke-linecap:round;stroke-dasharray:none;stroke-opacity:1"
       id="ellipse29"
       cx="-120.18669"
       cy="72.934196"
       rx="1.9689311"
       ry="1.9688455"
       transform="rotate(-90)" />
    <ellipse
       style="fill:none;stroke:#000000;stroke-width:0.3;stroke-linecap:round;stroke-dasharray:none;stroke-opacity:1"
       id="ellipse31"
       cx="110.81853"
       cy="120.18695"
       rx="2.6357858"
       ry="2.6356723" />
    <ellipse
       style="fill:none;stroke:#000000;stroke-width:0.3;stroke-linecap:round;stroke-dasharray:none;stroke-opacity:1"
       id="ellipse32"
       cx="110.81853"
       cy="120.18695"
       rx="1.9689311"
       ry="1.9688455" />
    <path
       style="fill:none;fill-rule:evenodd;stroke:#000bff;stroke-width:0.3;stroke-linecap:round;stroke-linejoin:miter;stroke-dasharray:0.9, 0.9;stroke-dashoffset:0;stroke-opacity:1;marker-start:url(#DartArrow)"
       d="m 76.420453,116.70054 12.67012,-12.67025"
       id="path35"
       inkscape:connector-type="polyline"
       inkscape:connector-curvature="0"
       sodipodi:nodetypes="cc"
       inkscape:transform-center-x="-0.60987595"
       inkscape:transform-center-y="-0.60988329" />
    <path
       style="fill:none;fill-rule:evenodd;stroke:#000bff;stroke-width:0.3;stroke-linecap:round;stroke-linejoin:miter;stroke-dasharray:none;stroke-opacity:1;marker-start:url(#DartArrow)"
       d="M 107.33228,116.70053 94.662033,104.03041"
       id="path39"
       inkscape:connector-type="polyline"
       inkscape:connector-curvature="0"
       sodipodi:nodetypes="cc"
       inkscape:transform-center-x="-9.1207939"
       inkscape:transform-center-y="9.120851" />
    <path
       style="fill:none;fill-rule:evenodd;stroke:#000bff;stroke-width:0.3;stroke-linecap:round;stroke-linejoin:miter;stroke-dasharray:0.9, 0.9;stroke-dashoffset:0;stroke-opacity:1;marker-start:url(#DartArrow)"
       d="m 76.420353,123.67295 12.67024,12.67012"
       id="path40"
       inkscape:connector-type="polyline"
       inkscape:connector-curvature="0"
       sodipodi:nodetypes="cc"
       inkscape:transform-center-x="-0.60988301"
       inkscape:transform-center-y="0.60987623" />
    <path
       style="fill:none;fill-rule:evenodd;stroke:#000bff;stroke-width:0.3;stroke-linecap:round;stroke-linejoin:miter;stroke-dasharray:none;stroke-opacity:1;marker-start:url(#DartArrow)"
       d="M 107.33235,123.67293 94.662233,136.34317"
       id="path41"
       inkscape:connector-type="polyline"
       inkscape:connector-curvature="0"
       sodipodi:nodetypes="cc"
       inkscape:transform-center-x="-9.120929"
       inkscape:transform-center-y="-9.1208911" />
    <path
       style="fill:none;fill-rule:evenodd;stroke:#000bff;stroke-width:0.3;stroke-linecap:round;stroke-linejoin:miter;stroke-dasharray:none;stroke-opacity:1;marker-end:url(#DartArrow-8)"
       d="m 96.300103,120.18672 h 8.219677"
       id="path42"
       inkscape:connector-type="polyline"
       inkscape:connector-curvature="0"
       sodipodi:nodetypes="cc"
       inkscape:transform-center-x="-8.533579"
       inkscape:transform-center-y="-6.15e-05" />
    <path
       style="fill:none;fill-rule:evenodd;stroke:#ff0b00;stroke-width:0.3;stroke-linecap:round;stroke-linejoin:miter;stroke-dasharray:0.9, 0.9;stroke-dashoffset:0;stroke-opacity:1;marker-end:url(#DartArrow-8)"
       d="m 91.876423,124.61052 v 8.21968"
       id="path43"
       inkscape:connector-type="polyline"
       inkscape:connector-curvature="0"
       sodipodi:nodetypes="cc" />
    <path
       style="fill:none;fill-rule:evenodd;stroke:#000bff;stroke-width:0.3;stroke-linecap:round;stroke-linejoin:round;stroke-dasharray:0.9, 0.9;stroke-dashoffset:0;stroke-opacity:1;marker-end:url(#DartArrow-8)"
       d="m 87.452623,120.18684 h -8.21968"
       id="path44"
       inkscape:connector-type="polyline"
       inkscape:connector-curvature="0"
       sodipodi:nodetypes="cc"
       inkscape:transform-center-x="-0.93750003" />
    <g
       id="g51"
       transform="matrix(1,0,0,-1,-83.153177,146.18873)"
       style="stroke:#ff0b00;stroke-opacity:1">
      <path
         style="fill:none;stroke:#ff0b00;stroke-width:0.3;stroke-linecap:round;stroke-dasharray:none;stroke-opacity:1"
         d="m 156.08737,29.985642 c 0,5.186879 9.2114,14.917682 14.75422,14.917682"
         id="path50"
         sodipodi:nodetypes="cc" />
      <path
         style="fill:none;fill-rule:evenodd;stroke:#ff0b00;stroke-width:0.264583px;stroke-linecap:butt;stroke-linejoin:miter;stroke-opacity:1;marker-end:url(#marker47)"
         d="m 169.63095,44.765793 0.63907,0.137531"
         id="path51"
         inkscape:connector-type="polyline"
         inkscape:connector-curvature="0"
         sodipodi:nodetypes="cc" />
    </g>
    <g
       id="g53"
       transform="rotate(180,133.48508,73.094378)"
       style="stroke:#ff0b00;stroke-opacity:1">
      <path
         style="fill:none;stroke:#ff0b00;stroke-width:0.3;stroke-linecap:round;stroke-dasharray:none;stroke-opacity:1"
         d="m 156.08737,29.985642 c 0,5.186879 9.2114,14.917682 14.75422,14.917682"
         id="path52"
         sodipodi:nodetypes="cc" />
      <path
         style="fill:none;fill-rule:evenodd;stroke:#ff0b00;stroke-width:0.264583px;stroke-linecap:butt;stroke-linejoin:miter;stroke-opacity:1;marker-end:url(#marker47)"
         d="m 169.63095,44.765793 0.63907,0.137531"
         id="path53"
         inkscape:connector-type="polyline"
         inkscape:connector-curvature="0"
         sodipodi:nodetypes="cc" />
    </g>
    <g
       id="g56"
       inkscape:transform-center-x="-25.436274"
       inkscape:transform-center-y="0.00039154978"
       style="stroke:#000bff;stroke-opacity:1"
       transform="translate(-83.153177,94.225616)">
      <path
         style="fill:none;fill-opacity:1;stroke:#000bff;stroke-width:0.3;stroke-linecap:round;stroke-dasharray:none;stroke-opacity:1"
         d="m 198.5039,24.531106 c 2.13047,-1.07295 4.83722,0.782332 4.45016,2.061748 -0.42189,1.394472 -3.35033,1.574542 -5.01376,0.04166"
         id="path54"
         sodipodi:nodetypes="csc" />
      <path
         style="fill:none;fill-rule:evenodd;stroke:#000bff;stroke-width:0.264583px;stroke-linecap:butt;stroke-linejoin:miter;stroke-opacity:1;marker-end:url(#marker56)"
         d="m 198.94144,24.352981 -0.27139,0.100797"
         id="path55"
         inkscape:connector-type="polyline"
         inkscape:connector-curvature="0"
         sodipodi:nodetypes="cc" />
    </g>
    <g
       id="g58"
       inkscape:transform-center-x="-0.00039075336"
       inkscape:transform-center-y="-25.436276"
       transform="rotate(-90,180.56576,114.65056)"
       style="stroke:#ff0b00;stroke-opacity:1">
      <path
         style="fill:none;fill-opacity:1;stroke:#ff0b00;stroke-width:0.3;stroke-linecap:round;stroke-dasharray:none;stroke-opacity:1"
         d="m 198.5039,24.531106 c 2.13047,-1.07295 4.83722,0.782332 4.45016,2.061748 -0.42189,1.394472 -3.35033,1.574542 -5.01376,0.04166"
         id="path57"
         sodipodi:nodetypes="csc" />
      <path
         style="fill:none;fill-rule:evenodd;stroke:#ff0b00;stroke-width:0.264583px;stroke-linecap:butt;stroke-linejoin:miter;stroke-opacity:1;marker-end:url(#marker56)"
         d="m 198.94144,24.352981 -0.27139,0.100797"
         id="path58"
         inkscape:connector-type="polyline"
         inkscape:connector-curvature="0"
         sodipodi:nodetypes="cc" />
    </g>
    <g
       id="g60"
       inkscape:transform-center-x="25.436277"
       inkscape:transform-center-y="-0.00039075336"
       transform="rotate(180,133.45295,73.073973)"
       style="stroke:#000bff;stroke-opacity:1;stroke-linecap:round;stroke-dasharray:1;stroke-dashoffset:0">
      <path
         style="fill:none;fill-opacity:1;stroke:#000bff;stroke-width:0.3;stroke-linecap:round;stroke-dasharray:1;stroke-opacity:1;stroke-dashoffset:0"
         d="m 198.5039,24.531106 c 2.13047,-1.07295 4.83722,0.782332 4.45016,2.061748 -0.42189,1.394472 -3.35033,1.574542 -5.01376,0.04166"
         id="path59"
         sodipodi:nodetypes="csc" />
      <path
         style="fill:none;fill-rule:evenodd;stroke:#000bff;stroke-width:0.264583px;stroke-linecap:round;stroke-linejoin:miter;stroke-dasharray:1;stroke-dashoffset:0;stroke-opacity:1;marker-end:url(#marker56)"
         d="m 198.94144,24.352981 -0.27139,0.100797"
         id="path60"
         inkscape:connector-type="polyline"
         inkscape:connector-curvature="0"
         sodipodi:nodetypes="cc" />
    </g>
    <g
       id="g62"
       inkscape:transform-center-x="0.00039075336"
       inkscape:transform-center-y="25.436278"
       transform="rotate(90,86.340143,31.497386)"
       style="stroke:#ff0b00;stroke-opacity:1;stroke-linecap:round;stroke-dasharray:1;stroke-dashoffset:0">
      <path
         style="fill:none;fill-opacity:1;stroke:#ff0b00;stroke-width:0.3;stroke-linecap:round;stroke-dasharray:1;stroke-opacity:1;stroke-dashoffset:0"
         d="m 198.5039,24.531106 c 2.13047,-1.07295 4.83722,0.782332 4.45016,2.061748 -0.42189,1.394472 -3.35033,1.574542 -5.01376,0.04166"
         id="path61"
         sodipodi:nodetypes="csc" />
      <path
         style="fill:none;fill-rule:evenodd;stroke:#ff0b00;stroke-width:0.264583px;stroke-linecap:round;stroke-linejoin:miter;stroke-dasharray:1;stroke-dashoffset:0;stroke-opacity:1;marker-end:url(#marker56)"
         d="m 198.94144,24.352981 -0.27139,0.100797"
         id="path62"
         inkscape:connector-type="polyline"
         inkscape:connector-curvature="0"
         sodipodi:nodetypes="cc" />
    </g>
    <g
       id="g7"
       transform="translate(-83.217431,94.184817)"
       style="stroke:#ff0b00;stroke-opacity:1;stroke-dasharray:1;stroke-dashoffset:0;stroke-linecap:round"
       inkscape:transform-center-x="11.629317"
       inkscape:transform-center-y="11.442517">
      <path
         style="fill:none;stroke:#ff0b00;stroke-width:0.3;stroke-linecap:round;stroke-dasharray:1;stroke-opacity:1;stroke-dashoffset:0"
         d="m 156.08737,29.985642 c 0,5.186879 9.2114,14.917682 14.75422,14.917682"
         id="path5"
         sodipodi:nodetypes="cc" />
      <path
         style="fill:none;fill-rule:evenodd;stroke:#ff0b00;stroke-width:0.264583px;stroke-linecap:round;stroke-linejoin:miter;stroke-dasharray:1;stroke-dashoffset:0;stroke-opacity:1;marker-end:url(#marker47)"
         d="m 169.63095,44.765793 0.63907,0.137531"
         id="path7"
         inkscape:connector-type="polyline"
         inkscape:connector-curvature="0"
         sodipodi:nodetypes="cc" />
    </g>
    <g
       id="g9"
       transform="matrix(-1,0,0,1,266.9059,94.184834)"
       style="stroke:#ff0b00;stroke-opacity:1;stroke-dasharray:1;stroke-dashoffset:0;stroke-linecap:round"
       inkscape:transform-center-x="-11.565058"
       inkscape:transform-center-y="11.442535">
      <path
         style="fill:none;stroke:#ff0b00;stroke-width:0.3;stroke-linecap:round;stroke-dasharray:1;stroke-opacity:1;stroke-dashoffset:0"
         d="m 156.08737,29.985642 c 0,5.186879 9.2114,14.917682 14.75422,14.917682"
         id="path8"
         sodipodi:nodetypes="cc" />
      <path
         style="fill:none;fill-rule:evenodd;stroke:#ff0b00;stroke-width:0.264583px;stroke-linecap:round;stroke-linejoin:miter;stroke-dasharray:1;stroke-dashoffset:0;stroke-opacity:1;marker-end:url(#marker47)"
         d="m 169.63095,44.765793 0.63907,0.137531"
         id="path9"
         inkscape:connector-type="polyline"
         inkscape:connector-curvature="0"
         sodipodi:nodetypes="cc" />
    </g>
    <g
       fill="#000000"
       fill-opacity="1"
       id="g2507"
       transform="matrix(0.44391474,0,0,0.44391474,73.435869,40.959192)"
       style="stroke-width:0.794698;fill:#0000ff;fill-opacity:1">
      <g
         transform="translate(58.119389,175.98118)"
         id="g5871"
         style="fill:#0000ff;fill-opacity:1;stroke-width:0.794698">
        <path
           d="M 3.328125,-3.015625 C 3.390625,-3.265625 3.625,-4.1875 4.3125,-4.1875 c 0.046875,0 0.296875,0 0.5,0.125 C 4.53125,-4 4.34375,-3.765625 4.34375,-3.515625 c 0,0.15625 0.109375,0.34375 0.375,0.34375 0.21875,0 0.53125,-0.171875 0.53125,-0.578125 0,-0.515625 -0.578125,-0.65625 -0.921875,-0.65625 -0.578125,0 -0.921875,0.53125 -1.046875,0.75 -0.25,-0.65625 -0.78125,-0.75 -1.078125,-0.75 -1.03125,0 -1.609375,1.28125 -1.609375,1.53125 0,0.109375 0.109375,0.109375 0.125,0.109375 0.078125,0 0.109375,-0.03125 0.125,-0.109375 0.34375,-1.0625 1,-1.3125 1.34375,-1.3125 0.1875,0 0.53125,0.09375 0.53125,0.671875 0,0.3125 -0.171875,0.96875 -0.53125,2.375 -0.15625,0.609375 -0.515625,1.03125 -0.953125,1.03125 -0.0625,0 -0.28125,0 -0.5,-0.125 0.25,-0.0625 0.46875,-0.265625 0.46875,-0.546875 0,-0.265625 -0.21875,-0.34375 -0.359375,-0.34375 -0.3125,0 -0.546875,0.25 -0.546875,0.578125 0,0.453125 0.484375,0.65625 0.921875,0.65625 0.671875,0 1.03125,-0.703125 1.046875,-0.75 0.125,0.359375 0.484375,0.75 1.078125,0.75 1.03125,0 1.59375,-1.28125 1.59375,-1.53125 0,-0.109375 -0.078125,-0.109375 -0.109375,-0.109375 -0.09375,0 -0.109375,0.046875 -0.140625,0.109375 -0.328125,1.078125 -1,1.3125 -1.3125,1.3125 -0.390625,0 -0.546875,-0.3125 -0.546875,-0.65625 0,-0.21875 0.046875,-0.4375 0.15625,-0.875 z m 0,0"
           id="path8097"
           style="fill:#0000ff;fill-opacity:1;stroke-width:0.794698" />
      </g>
    </g>
    <g
       fill="#000000"
       fill-opacity="1"
       id="g9201"
       transform="matrix(0.44391474,0,0,0.44391474,27.046951,41.405381)"
       style="fill:#ff0000;fill-opacity:1;stroke-width:0.794698">
      <g
         transform="translate(148.712,158.675)"
         id="g398"
         style="fill:#ff0000;fill-opacity:1;stroke-width:0.794698">
        <path
           d="m 4.84375,-3.796875 c 0.046875,-0.140625 0.046875,-0.15625 0.046875,-0.234375 0,-0.171875 -0.140625,-0.265625 -0.296875,-0.265625 -0.09375,0 -0.25,0.0625 -0.34375,0.203125 -0.015625,0.0625 -0.109375,0.359375 -0.140625,0.546875 -0.078125,0.25 -0.140625,0.53125 -0.203125,0.796875 l -0.453125,1.796875 c -0.03125,0.140625 -0.46875,0.84375 -1.125,0.84375 -0.5,0 -0.609375,-0.4375 -0.609375,-0.8125 C 1.71875,-1.375 1.890625,-2 2.21875,-2.875 2.375,-3.28125 2.421875,-3.390625 2.421875,-3.59375 c 0,-0.4375 -0.3125,-0.8125 -0.8125,-0.8125 -0.953125,0 -1.3125,1.453125 -1.3125,1.53125 0,0.109375 0.09375,0.109375 0.109375,0.109375 0.109375,0 0.109375,-0.03125 0.15625,-0.1875 0.28125,-0.9375 0.671875,-1.234375 1.015625,-1.234375 0.078125,0 0.25,0 0.25,0.3125 0,0.25 -0.109375,0.515625 -0.171875,0.703125 -0.40625,1.0625 -0.578125,1.625 -0.578125,2.09375 0,0.890625 0.625,1.1875 1.21875,1.1875 0.390625,0 0.71875,-0.171875 1,-0.453125 -0.125,0.515625 -0.25,1.015625 -0.640625,1.546875 -0.265625,0.328125 -0.640625,0.625 -1.09375,0.625 -0.140625,0 -0.59375,-0.03125 -0.765625,-0.421875 0.15625,0 0.296875,0 0.421875,-0.125 C 1.328125,1.203125 1.421875,1.0625 1.421875,0.875 1.421875,0.5625 1.15625,0.53125 1.0625,0.53125 0.828125,0.53125 0.5,0.6875 0.5,1.171875 c 0,0.5 0.4375,0.875 1.0625,0.875 1.015625,0 2.046875,-0.90625 2.328125,-2.03125 z m 0,0"
           id="path5830"
           style="fill:#ff0000;fill-opacity:1;stroke-width:0.794698" />
      </g>
    </g>
    <g
       id="g2"
       style="fill:#0000ff;fill-opacity:1"
       transform="translate(-58.399712,-2.969634)">
      <g
         fill="#000000"
         fill-opacity="1"
         id="g5900"
         transform="matrix(0.44391474,0,0,0.44391474,73.435869,40.959192)"
         style="fill:#0000ff;fill-opacity:1;stroke-width:0.794698">
        <g
           transform="translate(148.712,182.585)"
           id="g3309"
           style="fill:#0000ff;fill-opacity:1;stroke-width:0.794698">
          <path
             d="M 3.328125,-3.015625 C 3.390625,-3.265625 3.625,-4.1875 4.3125,-4.1875 c 0.046875,0 0.296875,0 0.5,0.125 C 4.53125,-4 4.34375,-3.765625 4.34375,-3.515625 c 0,0.15625 0.109375,0.34375 0.375,0.34375 0.21875,0 0.53125,-0.171875 0.53125,-0.578125 0,-0.515625 -0.578125,-0.65625 -0.921875,-0.65625 -0.578125,0 -0.921875,0.53125 -1.046875,0.75 -0.25,-0.65625 -0.78125,-0.75 -1.078125,-0.75 -1.03125,0 -1.609375,1.28125 -1.609375,1.53125 0,0.109375 0.109375,0.109375 0.125,0.109375 0.078125,0 0.109375,-0.03125 0.125,-0.109375 0.34375,-1.0625 1,-1.3125 1.34375,-1.3125 0.1875,0 0.53125,0.09375 0.53125,0.671875 0,0.3125 -0.171875,0.96875 -0.53125,2.375 -0.15625,0.609375 -0.515625,1.03125 -0.953125,1.03125 -0.0625,0 -0.28125,0 -0.5,-0.125 0.25,-0.0625 0.46875,-0.265625 0.46875,-0.546875 0,-0.265625 -0.21875,-0.34375 -0.359375,-0.34375 -0.3125,0 -0.546875,0.25 -0.546875,0.578125 0,0.453125 0.484375,0.65625 0.921875,0.65625 0.671875,0 1.03125,-0.703125 1.046875,-0.75 0.125,0.359375 0.484375,0.75 1.078125,0.75 1.03125,0 1.59375,-1.28125 1.59375,-1.53125 0,-0.109375 -0.078125,-0.109375 -0.109375,-0.109375 -0.09375,0 -0.109375,0.046875 -0.140625,0.109375 -0.328125,1.078125 -1,1.3125 -1.3125,1.3125 -0.390625,0 -0.546875,-0.3125 -0.546875,-0.65625 0,-0.21875 0.046875,-0.4375 0.15625,-0.875 z m 0,0"
             id="path7814"
             style="fill:#0000ff;fill-opacity:1;stroke-width:0.794698" />
        </g>
      </g>
      <g
         fill="#000000"
         fill-opacity="1"
         id="g6116"
         transform="matrix(0.44391474,0,0,0.44391474,73.435869,40.959192)"
         style="fill:#0000ff;fill-opacity:1;stroke-width:0.794698">
        <g
           transform="translate(154.406,178.97)"
           id="g247"
           style="fill:#0000ff;fill-opacity:1;stroke-width:0.794698">
          <path
             d="m 5.1875,-1.578125 c 0.109375,0 0.28125,0 0.28125,-0.15625 0,-0.1875 -0.171875,-0.1875 -0.28125,-0.1875 H 1.03125 c -0.109375,0 -0.28125,0 -0.28125,0.171875 0,0.171875 0.15625,0.171875 0.28125,0.171875 z m 0,0"
             id="path9236"
             style="fill:#0000ff;fill-opacity:1;stroke-width:0.794698" />
        </g>
      </g>
      <g
         fill="#000000"
         fill-opacity="1"
         id="g5817"
         transform="matrix(0.44391474,0,0,0.44391474,73.435869,40.959192)"
         style="fill:#0000ff;fill-opacity:1;stroke-width:0.794698">
        <g
           transform="translate(160.633,178.97)"
           id="g7245"
           style="fill:#0000ff;fill-opacity:1;stroke-width:0.794698">
          <path
             d="m 2.328125,-4.4375 c 0,-0.1875 0,-0.1875 -0.203125,-0.1875 -0.453125,0.4375 -1.078125,0.4375 -1.359375,0.4375 v 0.25 c 0.15625,0 0.625,0 1,-0.1875 v 3.546875 c 0,0.234375 0,0.328125 -0.6875,0.328125 H 0.8125 V 0 c 0.125,0 0.984375,-0.03125 1.234375,-0.03125 0.21875,0 1.09375,0.03125 1.25,0.03125 V -0.25 H 3.03125 c -0.703125,0 -0.703125,-0.09375 -0.703125,-0.328125 z m 0,0"
             id="path4613"
             style="fill:#0000ff;fill-opacity:1;stroke-width:0.794698" />
        </g>
      </g>
    </g>
    <g
       id="g1"
       style="fill:#ff0000;fill-opacity:1"
       transform="translate(-46.090489,-3.211162)">
      <g
         fill="#000000"
         fill-opacity="1"
         id="g6400"
         transform="matrix(0.44391474,0,0,0.44391474,73.435869,40.959192)"
         style="fill:#ff0000;fill-opacity:1;stroke-width:0.794698">
        <g
           transform="translate(148.712,206.496)"
           id="g8611"
           style="fill:#ff0000;fill-opacity:1;stroke-width:0.794698">
          <path
             d="m 4.84375,-3.796875 c 0.046875,-0.140625 0.046875,-0.15625 0.046875,-0.234375 0,-0.171875 -0.140625,-0.265625 -0.296875,-0.265625 -0.09375,0 -0.25,0.0625 -0.34375,0.203125 -0.015625,0.0625 -0.109375,0.359375 -0.140625,0.546875 -0.078125,0.25 -0.140625,0.53125 -0.203125,0.796875 l -0.453125,1.796875 c -0.03125,0.140625 -0.46875,0.84375 -1.125,0.84375 -0.5,0 -0.609375,-0.4375 -0.609375,-0.8125 C 1.71875,-1.375 1.890625,-2 2.21875,-2.875 2.375,-3.28125 2.421875,-3.390625 2.421875,-3.59375 c 0,-0.4375 -0.3125,-0.8125 -0.8125,-0.8125 -0.953125,0 -1.3125,1.453125 -1.3125,1.53125 0,0.109375 0.09375,0.109375 0.109375,0.109375 0.109375,0 0.109375,-0.03125 0.15625,-0.1875 0.28125,-0.9375 0.671875,-1.234375 1.015625,-1.234375 0.078125,0 0.25,0 0.25,0.3125 0,0.25 -0.109375,0.515625 -0.171875,0.703125 -0.40625,1.0625 -0.578125,1.625 -0.578125,2.09375 0,0.890625 0.625,1.1875 1.21875,1.1875 0.390625,0 0.71875,-0.171875 1,-0.453125 -0.125,0.515625 -0.25,1.015625 -0.640625,1.546875 -0.265625,0.328125 -0.640625,0.625 -1.09375,0.625 -0.140625,0 -0.59375,-0.03125 -0.765625,-0.421875 0.15625,0 0.296875,0 0.421875,-0.125 C 1.328125,1.203125 1.421875,1.0625 1.421875,0.875 1.421875,0.5625 1.15625,0.53125 1.0625,0.53125 0.828125,0.53125 0.5,0.6875 0.5,1.171875 c 0,0.5 0.4375,0.875 1.0625,0.875 1.015625,0 2.046875,-0.90625 2.328125,-2.03125 z m 0,0"
             id="path3508"
             style="fill:#ff0000;fill-opacity:1;stroke-width:0.794698" />
        </g>
      </g>
      <g
         fill="#000000"
         fill-opacity="1"
         id="g5049"
         transform="matrix(0.44391474,0,0,0.44391474,73.435869,40.959192)"
         style="fill:#ff0000;fill-opacity:1;stroke-width:0.794698">
        <g
           transform="translate(153.954,202.88)"
           id="g5860"
           style="fill:#ff0000;fill-opacity:1;stroke-width:0.794698">
          <path
             d="m 5.1875,-1.578125 c 0.109375,0 0.28125,0 0.28125,-0.15625 0,-0.1875 -0.171875,-0.1875 -0.28125,-0.1875 H 1.03125 c -0.109375,0 -0.28125,0 -0.28125,0.171875 0,0.171875 0.15625,0.171875 0.28125,0.171875 z m 0,0"
             id="path5405"
             style="fill:#ff0000;fill-opacity:1;stroke-width:0.794698" />
        </g>
      </g>
      <g
         fill="#000000"
         fill-opacity="1"
         id="g9829"
         transform="matrix(0.44391474,0,0,0.44391474,73.435869,40.959192)"
         style="fill:#ff0000;fill-opacity:1;stroke-width:0.794698">
        <g
           transform="translate(160.181,202.88)"
           id="g1010"
           style="fill:#ff0000;fill-opacity:1;stroke-width:0.794698">
          <path
             d="m 2.328125,-4.4375 c 0,-0.1875 0,-0.1875 -0.203125,-0.1875 -0.453125,0.4375 -1.078125,0.4375 -1.359375,0.4375 v 0.25 c 0.15625,0 0.625,0 1,-0.1875 v 3.546875 c 0,0.234375 0,0.328125 -0.6875,0.328125 H 0.8125 V 0 c 0.125,0 0.984375,-0.03125 1.234375,-0.03125 0.21875,0 1.09375,0.03125 1.25,0.03125 V -0.25 H 3.03125 c -0.703125,0 -0.703125,-0.09375 -0.703125,-0.328125 z m 0,0"
             id="path2683"
             style="fill:#ff0000;fill-opacity:1;stroke-width:0.794698" />
        </g>
      </g>
    </g>
  </g>
</svg>
