<?xml version="1.0" encoding="UTF-8" standalone="no"?>
<!-- Created with Inkscape (http://www.inkscape.org/) -->

<svg
   width="99.041473mm"
   height="38.754627mm"
   viewBox="0 0 99.041473 38.754627"
   version="1.1"
   id="svg1"
   inkscape:version="1.4.2 (ebf0e940, 2025-05-08)"
   sodipodi:docname="opposite_octagon.svg"
   xmlns:inkscape="http://www.inkscape.org/namespaces/inkscape"
   xmlns:sodipodi="http://sodipodi.sourceforge.net/DTD/sodipodi-0.dtd"
   xmlns="http://www.w3.org/2000/svg"
   xmlns:svg="http://www.w3.org/2000/svg">
  <sodipodi:namedview
     id="namedview1"
     pagecolor="#ffffff"
     bordercolor="#000000"
     borderopacity="0.25"
     inkscape:showpageshadow="2"
     inkscape:pageopacity="0.0"
     inkscape:pagecheckerboard="0"
     inkscape:deskcolor="#d1d1d1"
     inkscape:document-units="mm"
     inkscape:zoom="1.2247669"
     inkscape:cx="128.18765"
     inkscape:cy="63.277345"
     inkscape:window-width="1680"
     inkscape:window-height="1022"
     inkscape:window-x="0"
     inkscape:window-y="0"
     inkscape:window-maximized="1"
     inkscape:current-layer="layer1" />
  <defs
     id="defs1" />
  <g
     inkscape:label="Layer 1"
     inkscape:groupmode="layer"
     id="layer1"
     transform="translate(-157.91922,-244.475)">
    <ellipse
       style="display:inline;fill:none;fill-opacity:1;stroke:#4535ff;stroke-width:0.175786;stroke-dasharray:none;stroke-opacity:0.984314"
       id="path109"
       cx="218.40033"
       cy="271.51294"
       rx="18.31937"
       ry="9.5629416" />
    <path
       style="display:inline;fill:none;fill-opacity:1;stroke:#db2242;stroke-width:0.174843;stroke-dasharray:none;stroke-opacity:1"
       d="m 222.70404,272.88741 c 3.26248,-0.24872 3.92689,9.45835 0.79763,9.97208"
       id="path108"
       sodipodi:nodetypes="cc" />
    <path
       style="display:inline;fill:none;fill-opacity:1;stroke:#ff6911;stroke-width:0.175786;stroke-dasharray:none;stroke-opacity:1"
       d="m 217.66922,268.31125 c -2.04677,0.24504 -2.14819,-3.02907 -6.06511,-2.40145 -1.38937,0.22264 -16.36609,5.89004 0.87195,9.99953 2.03265,0.48456 11.92704,1.04175 15.3863,-0.14809 2.66215,-0.91567 10.2389,-3.54676 6.46513,-9.79482 -2.51461,-4.1633 20.30774,-1.39276 22.54531,-9.97694"
       id="path107"
       sodipodi:nodetypes="cssssc" />
    <path
       style="display:inline;fill:none;fill-opacity:1;stroke:#df16cf;stroke-width:0.175786;stroke-dasharray:none;stroke-opacity:1"
       d="m 228.85367,270.65889 c 2.91518,-2.39714 3.81228,-1.04734 3.68002,0.15617 -0.18996,1.72857 -0.76237,8.59209 -13.81909,8.16051 -13.05673,-0.43158 -16.33339,-5.48757 -16.40041,-7.37434 -0.13258,-3.73257 4.40138,-5.57617 7.20693,-6.53185 2.62337,-0.89364 10.04075,-1.73598 13.93632,-1.0886 3.89557,0.64737 4.26076,-6.06551 9.61955,-6.35339"
       id="path106"
       sodipodi:nodetypes="csssssc" />
    <path
       style="display:inline;fill:none;stroke:#000000;stroke-width:0.175786"
       d="m 215.5204,260.41369 c -1.07678,-1.36077 -1.67185,-2.85558 -1.67185,-4.42421 -10e-6,-6.31073 9.6313,-11.42659 21.51212,-11.42659 11.88082,0 21.51213,5.11586 21.51213,11.42659 -10e-6,5.73441 -7.95253,10.48221 -18.31908,11.30156"
       id="path105" />
    <path
       style="display:inline;fill:none;fill-opacity:1;stroke:#000000;stroke-width:0.175786;stroke-dasharray:none;stroke-opacity:1"
       d="m 223.50916,254.59314 c 0,0 9.57837,6.97123 23.01076,-0.0567"
       id="path44-8" />
    <path
       style="display:inline;fill:none;fill-opacity:1;stroke:#000000;stroke-width:0.175786;stroke-dasharray:none;stroke-opacity:1"
       d="m 224.30264,255.15991 c 0,0 9.63504,-5.55433 21.1971,-0.22671"
       id="path45-35" />
    <path
       style="display:inline;fill:none;stroke:#000000;stroke-width:0.175786"
       d="m 238.55156,267.28676 c 1.07887,1.36188 1.67517,2.85815 1.67517,4.4284 -1e-5,6.31072 -9.63131,11.42657 -21.51213,11.42657 -11.88083,0 -21.51213,-5.11585 -21.51213,-11.42657 -1e-5,-5.7353 7.95496,-10.48369 18.32386,-11.30195"
       id="path104" />
    <path
       style="display:inline;fill:none;fill-opacity:1;stroke:#000000;stroke-width:0.175786;stroke-dasharray:none;stroke-opacity:1"
       d="m 206.86308,270.31883 c 0,0 9.57838,6.97123 23.01077,-0.0567"
       id="path44-8-5" />
    <path
       style="display:inline;fill:none;fill-opacity:1;stroke:#000000;stroke-width:0.175786;stroke-dasharray:none;stroke-opacity:1"
       d="m 207.65656,270.8856 c 0,0 9.63505,-5.55432 21.19711,-0.22671"
       id="path45-35-2" />
    <path
       style="display:inline;fill:none;fill-opacity:1;stroke:#ff6911;stroke-width:0.271625;stroke-dasharray:none;stroke-opacity:1"
       d="m 177.9063,277.62636 -11.3733,0.0188"
       id="path10"
       inkscape:transform-center-x="-0.26138385"
       inkscape:transform-center-y="13.726322" />
    <path
       style="display:inline;fill:#000000;fill-opacity:1;stroke:#4635ff;stroke-width:0.271625;stroke-dasharray:none;stroke-opacity:0.981265"
       d="m 185.93516,269.57092 -8.02886,8.05544"
       id="path9"
       inkscape:transform-center-x="-9.8908032"
       inkscape:transform-center-y="9.5211492" />
    <path
       style="display:inline;fill:none;fill-opacity:1;stroke:#df16cf;stroke-width:0.271625;stroke-dasharray:none;stroke-opacity:1"
       d="m 185.91637,258.19761 0.0188,11.37331"
       id="path8"
       inkscape:transform-center-x="-13.726321"
       inkscape:transform-center-y="-0.26139168" />
    <path
       style="display:inline;fill:none;fill-opacity:1;stroke:#db2242;stroke-width:0.271625;stroke-dasharray:none;stroke-opacity:1"
       d="m 177.86094,250.16877 8.05543,8.02884"
       id="path7"
       inkscape:transform-center-x="-9.5211481"
       inkscape:transform-center-y="-9.8908087" />
    <path
       style="display:inline;fill:none;fill-opacity:1;stroke:#ff6911;stroke-width:0.271625;stroke-dasharray:none;stroke-opacity:1"
       d="m 166.48763,250.18756 11.37331,-0.0188"
       id="path6"
       inkscape:transform-center-x="0.26138832"
       inkscape:transform-center-y="-13.726326" />
    <path
       style="display:inline;fill:none;fill-opacity:1;stroke:#4535ff;stroke-width:0.271625;stroke-dasharray:none;stroke-opacity:0.984314"
       d="m 158.45878,258.24299 8.02885,-8.05543"
       id="path5"
       inkscape:transform-center-x="9.8908073"
       inkscape:transform-center-y="-9.5211477" />
    <path
       style="display:inline;fill:none;fill-opacity:1;stroke:#df16cf;stroke-width:0.271625;stroke-dasharray:none;stroke-opacity:1"
       d="m 158.47757,269.6163 -0.0188,-11.37331"
       id="path4"
       inkscape:transform-center-x="13.726326"
       inkscape:transform-center-y="0.26138835" />
    <path
       style="display:inline;fill:none;fill-opacity:1;stroke:#db2242;stroke-width:0.271625;stroke-dasharray:none;stroke-opacity:1"
       d="m 166.533,277.64514 -8.05543,-8.02884"
       id="path2"
       inkscape:transform-center-x="9.5211508"
       inkscape:transform-center-y="9.8908024" />
    <path
       sodipodi:type="star"
       style="display:inline;fill:#4535ff;fill-opacity:0.984314;stroke:none;stroke-width:0.1;stroke-dasharray:none;stroke-opacity:0.505855"
       id="path21"
       inkscape:flatsided="true"
       sodipodi:sides="3"
       sodipodi:cx="43.76984"
       sodipodi:cy="23.519079"
       sodipodi:r1="4.4019461"
       sodipodi:r2="2.200973"
       sodipodi:arg1="0.52359878"
       sodipodi:arg2="1.5707963"
       inkscape:rounded="0"
       inkscape:randomized="0"
       d="m 47.582037,25.720052 -7.624394,0 3.812197,-6.602919 z"
       inkscape:transform-center-y="9.4313567"
       transform="matrix(-0.04318643,0.13722762,-0.13722762,-0.04318643,187.03846,268.60791)"
       inkscape:transform-center-x="-9.964865" />
    <path
       sodipodi:type="star"
       style="display:inline;fill:#db2242;fill-opacity:1;stroke:none;stroke-width:0.1;stroke-dasharray:none;stroke-opacity:0.505855"
       id="path21-8"
       inkscape:flatsided="true"
       sodipodi:sides="3"
       sodipodi:cx="43.76984"
       sodipodi:cy="23.519079"
       sodipodi:r1="4.4019461"
       sodipodi:r2="2.200973"
       sodipodi:arg1="0.52359878"
       sodipodi:arg2="1.5707963"
       inkscape:rounded="0"
       inkscape:randomized="0"
       d="m 47.582037,25.720052 -7.624394,0 3.812197,-6.602919 z"
       inkscape:transform-center-y="-9.7352911"
       transform="matrix(0.13722762,0.04318643,-0.04318643,0.13722762,177.11196,249.29879)"
       inkscape:transform-center-x="-9.6494261" />
    <path
       sodipodi:type="star"
       style="display:inline;fill:#df16cf;fill-opacity:1;stroke:none;stroke-width:0.1;stroke-dasharray:none;stroke-opacity:1"
       id="path21-8-0"
       inkscape:flatsided="true"
       sodipodi:sides="3"
       sodipodi:cx="43.76984"
       sodipodi:cy="23.519079"
       sodipodi:r1="4.4019461"
       sodipodi:r2="2.200973"
       sodipodi:arg1="0.52359878"
       sodipodi:arg2="1.5707963"
       inkscape:rounded="0"
       inkscape:randomized="0"
       d="m 47.582037,25.720052 -7.624394,0 3.812197,-6.602919 z"
       inkscape:transform-center-y="-0.10831226"
       transform="matrix(-0.14386255,2.3766307e-4,-2.3766307e-4,-0.14386255,192.2282,267.25739)"
       inkscape:transform-center-x="-13.720295" />
    <path
       sodipodi:type="star"
       style="display:inline;fill:#db2242;fill-opacity:1;stroke:none;stroke-width:0.1;stroke-dasharray:none;stroke-opacity:0.505855"
       id="path21-8-6"
       inkscape:flatsided="true"
       sodipodi:sides="3"
       sodipodi:cx="43.76984"
       sodipodi:cy="23.519079"
       sodipodi:r1="4.4019461"
       sodipodi:r2="2.200973"
       sodipodi:arg1="0.52359878"
       sodipodi:arg2="1.5707963"
       inkscape:rounded="0"
       inkscape:randomized="0"
       d="m 47.582037,25.720052 -7.624394,0 3.812197,-6.602919 z"
       inkscape:transform-center-y="9.816747"
       transform="matrix(0.13722762,0.04318643,-0.04318643,0.13722762,157.51456,268.51299)"
       inkscape:transform-center-x="9.6109389" />
    <path
       sodipodi:type="star"
       style="display:inline;fill:#4535ff;fill-opacity:0.984314;stroke:none;stroke-width:0.1;stroke-dasharray:none;stroke-opacity:0.505855"
       id="path21-1"
       inkscape:flatsided="true"
       sodipodi:sides="3"
       sodipodi:cx="43.76984"
       sodipodi:cy="23.519079"
       sodipodi:r1="4.4019461"
       sodipodi:r2="2.200973"
       sodipodi:arg1="0.52359878"
       sodipodi:arg2="1.5707963"
       inkscape:rounded="0"
       inkscape:randomized="0"
       d="m 47.582037,25.720052 -7.624394,0 3.812197,-6.602919 z"
       inkscape:transform-center-y="-9.6109364"
       transform="matrix(-0.04318643,0.13722762,-0.13722762,-0.04318643,167.59093,249.22455)"
       inkscape:transform-center-x="9.8167429" />
    <path
       sodipodi:type="star"
       style="display:inline;fill:#df16cf;fill-opacity:1;stroke:none;stroke-width:0.1;stroke-dasharray:none;stroke-opacity:1"
       id="path21-8-0-1"
       inkscape:flatsided="true"
       sodipodi:sides="3"
       sodipodi:cx="43.76984"
       sodipodi:cy="23.519079"
       sodipodi:r1="4.4019461"
       sodipodi:r2="2.200973"
       sodipodi:arg1="0.52359878"
       sodipodi:arg2="1.5707963"
       inkscape:rounded="0"
       inkscape:randomized="0"
       d="m 47.582037,25.720052 -7.624394,0 3.812197,-6.602919 z"
       inkscape:transform-center-y="0.41445635"
       transform="matrix(-0.14386255,2.3766307e-4,-2.3766307e-4,-0.14386255,164.77061,267.30275)"
       inkscape:transform-center-x="13.732355" />
    <path
       sodipodi:type="star"
       style="display:inline;fill:#ff6911;fill-opacity:1;stroke:none;stroke-width:0.1;stroke-dasharray:none;stroke-opacity:0.505855"
       id="path21-8-0-1-8"
       inkscape:flatsided="true"
       sodipodi:sides="3"
       sodipodi:cx="43.76984"
       sodipodi:cy="23.519079"
       sodipodi:r1="4.4019461"
       sodipodi:r2="2.200973"
       sodipodi:arg1="0.52359878"
       sodipodi:arg2="1.5707963"
       inkscape:rounded="0"
       inkscape:randomized="0"
       d="m 47.582037,25.720052 -7.624394,0 3.812197,-6.602919 z"
       inkscape:transform-center-y="-13.730021"
       transform="matrix(-0.00310435,0.14382925,-0.14382925,-0.00310435,176.01182,243.95897)"
       inkscape:transform-center-x="-0.21471394" />
    <path
       sodipodi:type="star"
       style="display:inline;fill:#ff6911;fill-opacity:1;stroke:none;stroke-width:0.1;stroke-dasharray:none;stroke-opacity:0.505855"
       id="path21-8-0-1-8-4"
       inkscape:flatsided="true"
       sodipodi:sides="3"
       sodipodi:cx="43.76984"
       sodipodi:cy="23.519079"
       sodipodi:r1="4.4019461"
       sodipodi:r2="2.200973"
       sodipodi:arg1="0.52359878"
       sodipodi:arg2="1.5707963"
       inkscape:rounded="0"
       inkscape:randomized="0"
       d="m 47.582037,25.720052 -7.624394,0 3.812197,-6.602919 z"
       inkscape:transform-center-y="13.732352"
       transform="matrix(2.3766307e-4,0.14386255,-0.14386255,2.3766307e-4,175.59276,271.33332)"
       inkscape:transform-center-x="-0.41445525" />
    <path
       style="fill:#fcb054;fill-opacity:0.2;stroke:none;stroke-width:0.0876411"
       d="m 164.722,275.57013 c -1.66595,-1.67102 -1.86178,-1.89783 -1.90914,-2.21119 -0.0567,-0.37492 -0.12616,-0.42631 -0.3012,-0.2227 -0.0943,0.1097 -0.38811,-0.14831 -1.97585,-1.73523 l -1.86506,-1.86408 -0.0195,-2.55495 c -0.019,-2.49514 -0.0149,-2.56335 0.17148,-2.91363 0.23418,-0.43996 0.24052,-0.53497 0.0323,-0.48437 -0.14617,0.0355 -0.16544,-0.0421 -0.20329,-0.81819 -0.023,-0.47158 -0.0278,-1.67262 -0.0108,-2.66897 l 0.0311,-1.81155 1.82973,-1.83207 c 1.62254,-1.62459 1.87316,-1.8422 2.21311,-1.92154 0.39829,-0.093 0.45361,-0.15617 0.28738,-0.32828 -0.12226,-0.12658 -0.008,-0.2548 2.05183,-2.31046 l 1.55946,-1.55601 2.76791,0.0171 2.7679,0.0172 -0.004,0.20267 -0.004,0.20267 0.41778,-0.20905 c 0.40588,-0.20309 0.48577,-0.20942 2.80503,-0.22248 l 2.38726,-0.0134 0.65327,0.64804 c 3.12579,3.10075 3.28402,3.2703 3.17279,3.39967 -0.13849,0.16109 -0.0892,0.20962 0.39373,0.38719 0.30917,0.11369 0.74143,0.4943 2.05508,1.80952 1.55411,1.55596 1.6663,1.68986 1.70513,2.03497 0.0229,0.20317 0.0338,1.3992 0.0242,2.65784 l -0.0173,2.28842 -0.19611,-0.003 c -0.24338,-0.004 -0.24335,0.0116 7.7e-4,0.41584 0.19285,0.31931 0.19886,0.40254 0.2109,2.92242 l 0.0124,2.59375 -1.43129,1.4358 c -2.402,2.40956 -2.28072,2.2993 -2.39672,2.1792 -0.16677,-0.17268 -0.21418,-0.13366 -0.33704,0.27749 -0.0977,0.32708 -0.40011,0.67415 -1.93617,2.22244 l -1.82034,1.83481 -2.60267,0.0186 c -2.54968,0.0183 -2.60893,0.0148 -2.91113,-0.17064 -0.37882,-0.23248 -0.47203,-0.23855 -0.47564,-0.031 -0.002,0.14193 -0.10442,0.16614 -0.85361,0.20268 -0.46793,0.0229 -1.65484,0.0269 -2.63757,0.009 l -1.7868,-0.0321 z"
       id="path11" />
    <path
       style="fill:#00ae00;fill-opacity:0.1;stroke:none;stroke-width:2.26772;stroke-linecap:round;stroke-linejoin:round;stroke-dasharray:6.80317, 6.80317"
       d="m 218.70074,145.43756 c -13.7241,-0.82018 -27.7562,-3.79317 -39.07212,-8.27823 -16.70392,-6.6206 -27.8672,-16.34315 -31.31437,-27.27296 -2.94444,-9.3358 0.2017,-19.095667 8.83987,-27.422892 11.08448,-10.685471 30.44733,-18.469321 52.4847,-21.098809 2.43083,-0.290044 4.91293,-0.586303 5.51577,-0.658351 1.38312,-0.165299 1.39582,-0.496855 0.0857,-2.238146 -3.43582,-4.566529 -5.54317,-11.458547 -5.06323,-16.559126 0.44898,-4.771694 2.46279,-9.860492 5.54966,-14.023747 9.08851,-12.257673 28.70787,-21.699548 52.84088,-25.4298288 8.06295,-1.2463038 12.1599,-1.53009136 22.21671,-1.53890807 12.03206,-0.0105484 18.91584,0.62564587 29.14536,2.69359087 24.44243,4.9411534 42.88576,15.873595 49.41428,29.290738 1.38739,2.851309 2.39418,6.676395 2.4731,9.396075 0.0574,1.976625 0.0254,2.093965 -1.2934,4.747034 -3.97704,8.000731 -13.39787,13.620293 -29.63197,17.675593 -6.89668,1.7228 -13.3633,2.903464 -26.8962,4.910654 -19.05113,2.82565 -24.44539,4.227432 -26.9543,7.004493 -1.35577,1.500669 -1.2739,2.747789 0.39041,5.947422 0.70923,1.363493 1.28951,2.558404 1.28951,2.65536 0,0.09695 -0.80798,-0.571787 -1.79551,-1.486085 -3.59852,-3.331679 -9.22536,-6.843014 -15.18221,-9.474209 -2.7692,-1.223177 -10.55101,-3.972307 -13.12301,-4.636048 l -1.08677,-0.280458 2.0105,-2.50711 c 1.10578,-1.378908 3.11772,-3.900726 4.47098,-5.604036 4.27703,-5.383394 7.92496,-8.351759 12.13664,-9.875721 2.93858,-1.063304 3.48618,-1.119596 11.6917,-1.201911 7.26869,-0.07291 9.31497,-0.23526 14.93333,-1.184777 6.87192,-1.161371 15.26313,-3.675565 22.25855,-6.669161 4.55166,-1.947824 8.30281,-3.816395 8.30281,-4.135904 0,-0.520103 -0.45205,-0.442441 -2.00902,0.34516 l -1.62218,0.820582 -1.75675,-0.847533 c -6.75937,-3.261024 -17.37261,-6.213195 -26.84977,-7.468509 -4.33878,-0.574701 -16.7005,-0.654261 -20.89005,-0.134449 -10.18284,1.263422 -18.85528,3.560231 -27.05085,7.164154 -4.10404,1.804709 -3.91808,1.795654 -6.05173,0.294658 -0.60464,-0.425365 -0.7751,-0.454256 -0.95573,-0.161986 -0.27929,0.451893 1.6166,1.681621 5.92578,3.843635 7.14902,3.586826 15.36468,6.14425 23.61072,7.349701 1.55562,0.227408 2.86666,0.451731 2.91342,0.498496 0.0468,0.04677 -0.31345,0.159781 -0.80048,0.251148 -1.22548,0.229901 -3.71986,1.269289 -5.36751,2.236599 -3.41846,2.006917 -6.11345,4.706711 -10.96942,10.988975 -1.55533,2.012152 -3.25624,4.132616 -3.7798,4.71214 l -0.95194,1.053681 -3.67086,-0.760158 c -4.28695,-0.88774 -9.3227,-1.664653 -13.85799,-2.138009 -4.98104,-0.519881 -21.01621,-0.435542 -25.91913,0.136324 -10.66907,1.244418 -20.03075,3.442827 -27.85179,6.540455 -17.79888,7.049488 -27.96355,17.577611 -28.006,29.007404 -0.0177,4.77703 0.99139,8.03959 3.7914,12.25782 5.20822,7.84622 15.29869,14.49147 28.72627,18.91818 17.35395,5.72113 38.48274,7.11171 58.28581,3.83605 1.77308,-0.29328 3.49063,-0.59704 3.81679,-0.67501 0.5403,-0.12916 0.57754,-0.076 0.41896,0.59863 -0.75416,3.20802 -3.04262,6.62877 -4.94341,7.38931 -2.82493,1.13031 -18.82587,1.7954 -28.8221,1.19801 z"
       id="path1"
       transform="matrix(0.26458333,0,0,0.26458333,158.362,244.475)" />
    <path
       style="fill:#00ae00;fill-opacity:0.1;stroke:none;stroke-width:2.26771;stroke-linecap:round;stroke-linejoin:round;stroke-dasharray:6.80316, 6.80316"
       d="m 219.84087,137.8023 c -8.82786,-0.61141 -16.03457,-1.68156 -22.68669,-3.36883 -11.01336,-2.79347 -19.72404,-6.64351 -26.79919,-11.84498 -2.17366,-1.59802 -5.73064,-4.9981 -7.19557,-6.87819 -3.63891,-4.67014 -5.31436,-9.41343 -5.0744,-14.36583 0.61784,-12.75124 14.01813,-24.228346 35.55823,-30.454986 16.47231,-4.761685 36.02436,-5.767584 54.14098,-2.785405 2.99111,0.492368 7.93239,1.502958 8.08914,1.654392 0.15141,0.146269 -0.98305,1.167372 -2.21366,1.992474 -1.673,1.121715 -3.58861,1.732499 -5.43366,1.732499 -0.75533,0 -2.65149,-0.174816 -4.2137,-0.388479 -2.59967,-0.355556 -3.53397,-0.38876 -11.02456,-0.391795 -8.55598,-0.0035 -10.77845,0.104581 -18.17749,0.883729 -8.59078,0.904642 -17.06466,2.428765 -21.17499,3.808558 -14.27206,4.790971 -22.70886,10.362231 -26.11478,17.24495 -1.13465,2.292936 -1.50319,3.766485 -1.61136,6.442863 -0.1051,2.60042 0.0868,3.62656 1.08056,5.77737 3.46064,7.4901 13.00726,14.26619 26.04338,18.48529 11.28519,3.65242 26.79513,5.65402 41.60893,5.36974 6.94556,-0.13328 11.28484,-0.57272 16.49895,-1.67085 l 2.30724,-0.48593 v 1.2721 c 0,1.62646 -0.48289,5.33706 -0.71307,5.47932 -0.6053,0.3741 -9.02622,1.65301 -14.3493,2.17927 -2.64269,0.26127 -16.02867,0.48699 -18.54499,0.31272 z"
       id="path3"
       transform="matrix(0.26458333,0,0,0.26458333,158.362,244.475)" />
    <path
       style="fill:#00ae00;fill-opacity:0.1;stroke:none;stroke-width:2.26771;stroke-linecap:round;stroke-linejoin:round;stroke-dasharray:6.80316, 6.80316"
       d="m 223.93296,129.89462 c -17.21744,-1.07022 -30.3446,-4.05078 -40.69731,-9.24044 -7.35835,-3.68862 -12.84609,-8.532 -15.3771,-13.57155 -1.11963,-2.22932 -1.37702,-3.24811 -1.36168,-5.3899 0.0451,-6.300194 3.85682,-11.830166 11.4654,-16.633836 4.21905,-2.663685 13.32037,-6.47134 18.69799,-7.822543 10.64212,-2.673982 29.68251,-4.495858 41.15061,-3.937487 2.07806,0.101179 4.99993,0.340819 6.49306,0.532534 1.49311,0.191714 3.24068,0.347413 3.88349,0.345998 2.51907,-0.0055 4.98846,-1.023387 7.40211,-3.051015 l 1.35771,-1.140568 1.95079,0.521824 c 8.90156,2.381117 17.53318,6.264785 23.79911,10.70806 3.0023,2.128982 6.58688,5.466367 7.0314,6.546521 0.92512,2.24798 1.15443,6.59761 0.48999,9.294609 -1.01874,4.135143 -3.84972,8.079833 -8.17487,11.390873 -1.69678,1.29894 -4.18173,2.91561 -4.29989,2.79745 -0.0381,-0.0381 0.27483,-0.92967 0.69544,-1.98123 1.69833,-4.24601 2.68471,-10.450179 1.99526,-12.549881 -0.48491,-1.476784 -1.33379,-2.404403 -2.5903,-2.83059 -0.84189,-0.285554 -2.57959,-0.248335 -3.68623,0.07896 -1.84294,0.545049 -4.73028,2.189488 -6.94389,3.954778 -0.7682,0.612613 -0.77892,0.615278 -1.39305,0.346164 -13.15811,-5.765848 -25.11704,-8.342187 -39.10194,-8.423814 -1.91544,-0.01118 -3.87442,-0.09245 -4.35328,-0.180599 -1.55365,-0.285998 -2.55989,-0.934861 -4.99085,-3.218285 -1.27747,-1.199942 -2.75915,-2.523419 -3.29261,-2.94106 -1.8767,-1.469227 -4.09196,-2.484249 -6.29281,-2.883338 -1.48183,-0.268708 -5.02309,-0.228301 -6.5807,0.07509 -2.67152,0.520358 -7.70317,2.471536 -12.45039,4.828031 -5.35397,2.657679 -8.6631,4.894332 -11.68416,7.897345 -1.90076,1.889407 -2.18597,2.256225 -2.91458,3.748597 -0.49934,1.022777 -0.87123,2.069691 -0.97422,2.74257 -1.02305,6.683882 7.20269,12.561932 24.40003,17.436082 7.45033,2.11161 10.20956,2.58245 18.94689,3.23317 11.09488,0.8263 26.57643,0.87023 34.47094,0.0978 0.90595,-0.0886 1.68396,-0.12438 1.72892,-0.0794 0.34237,0.34237 0.90901,7.07735 0.61089,7.26096 -0.54349,0.33475 -6.59558,1.36659 -10.60398,1.80792 -2.8832,0.31744 -15.0139,0.46593 -18.80619,0.2302 z"
       id="path12"
       transform="matrix(0.26458333,0,0,0.26458333,158.362,244.475)" />
    <path
       style="fill:#00ae00;fill-opacity:0.1;stroke:none;stroke-width:2.26771;stroke-linecap:round;stroke-linejoin:round;stroke-dasharray:6.80316, 6.80316"
       d="m 225.41308,120.39171 c -13.50075,-0.70122 -17.94001,-1.19264 -23.42067,-2.59264 -14.47232,-3.69685 -23.17451,-7.77602 -26.6613,-12.49751 -4.298,-5.819966 0.72449,-12.759142 13.9497,-19.273192 4.76166,-2.345346 10.05764,-4.349379 12.4941,-4.727856 1.96638,-0.305453 5.86499,-0.111799 7.35688,0.365434 2.6131,0.83589 4.24095,1.928744 7.41429,4.977587 1.14612,1.101154 2.55409,2.306026 3.12883,2.677493 1.01111,0.653514 1.02931,0.678357 0.56193,0.766805 -0.26567,0.05027 -1.10991,0.139981 -1.87608,0.199347 -2.3429,0.181533 -7.27731,0.933641 -10.39738,1.58478 -6.81226,1.421672 -13.62916,3.659787 -19.10071,6.271114 l -2.33359,1.113718 -1.52606,-0.938619 c -1.09693,-0.674681 -1.57918,-0.8855 -1.71497,-0.749716 -0.10389,0.103897 -0.1889,0.244046 -0.1889,0.311442 0,0.252932 2.97605,2.024929 5.8334,3.473323 6.70811,3.40034 14.37381,5.87852 22.28882,7.20555 9.51979,1.59609 20.34275,1.46958 29.6894,-0.34704 1.19715,-0.23268 2.54591,-0.42336 2.99723,-0.42373 2.42004,-0.002 4.77468,1.98984 6.57636,5.56304 0.58543,1.16105 1.78805,4.65838 1.98992,5.78683 l 0.11475,0.64147 -0.74579,0.10149 c -2.64435,0.35989 -6.10478,0.47936 -15.11162,0.52174 -5.60268,0.0264 -10.69602,0.0215 -11.31854,-0.0109 z"
       id="path13"
       transform="matrix(0.26458333,0,0,0.26458333,158.362,244.475)" />
    <path
       style="fill:#00ae00;fill-opacity:0.1;stroke:none;stroke-width:2.26771;stroke-linecap:round;stroke-linejoin:round;stroke-dasharray:6.80316, 6.80316"
       d="m 253.26029,119.33074 c -0.0882,-0.23192 -0.16032,-0.53181 -0.16032,-0.66642 0,-0.13461 -0.30405,-1.17066 -0.67566,-2.30234 -1.47763,-4.49989 -3.48806,-7.40659 -5.98257,-8.64965 -0.50848,-0.25339 -0.77771,-0.4728 -0.63727,-0.51934 0.13375,-0.0443 1.06057,-0.28635 2.05961,-0.53784 5.96243,-1.50089 13.29464,-4.26548 19.77293,-7.455321 2.70461,-1.331721 2.87849,-1.446355 2.65485,-1.750243 -0.22788,-0.309627 -0.26658,-0.311096 -0.80882,-0.03069 -1.11503,0.576607 -0.70319,0.123011 0.71787,-0.790641 6.40981,-4.121118 10.44579,-2.609626 9.71232,3.637305 -0.47528,4.048 -1.38187,7.43257 -2.77486,10.35941 l -0.72897,1.53166 -2.46928,1.19148 c -6.80902,3.28549 -13.32477,5.42333 -18.80792,6.17094 l -1.71159,0.23337 z"
       id="path14"
       transform="matrix(0.26458333,0,0,0.26458333,158.362,244.475)" />
    <path
       style="fill:#00ae00;fill-opacity:0.1;stroke:none;stroke-width:2.26771;stroke-linecap:round;stroke-linejoin:round;stroke-dasharray:6.80316, 6.80316"
       d="m 254.07587,125.41476 c -0.0672,-1.21924 -0.2232,-2.83143 -0.34666,-3.58263 -0.15921,-0.96872 -0.1694,-1.38006 -0.0351,-1.4148 0.10417,-0.0269 1.33392,-0.21673 2.73277,-0.42177 1.39884,-0.20504 3.29058,-0.56701 4.20386,-0.80438 3.152,-0.81923 9.02262,-3.0307 12.97316,-4.887 1.07743,-0.50628 1.95898,-0.87595 1.95898,-0.82149 0,0.33115 -2.25751,3.15878 -3.65676,4.58026 -3.70482,3.76365 -8.52676,6.62577 -14.46813,8.58771 -1.28455,0.42418 -2.53905,0.81841 -2.78776,0.87607 l -0.45222,0.10483 z"
       id="path15"
       transform="matrix(0.26458333,0,0,0.26458333,158.362,244.475)" />
    <path
       style="fill:#00ae00;fill-opacity:0.1;stroke:none;stroke-width:2.26771;stroke-linecap:round;stroke-linejoin:round;stroke-dasharray:6.80316, 6.80316"
       d="m 253.70435,134.56003 c 0.29432,-1.70356 0.43388,-3.17739 0.43696,-4.61448 0.002,-0.8859 0.0381,-1.61072 0.0804,-1.61072 0.0423,0 0.97885,-0.27338 2.08118,-0.60751 9.01142,-2.73149 15.81312,-7.50924 19.90634,-13.98293 0.6042,-0.95557 0.90476,-1.22268 2.40529,-2.13756 3.83132,-2.33596 7.19646,-5.23181 9.18029,-7.90003 2.85365,-3.838113 4.04445,-8.36149 3.36858,-12.795921 -0.15206,-0.997746 -0.25207,-1.838495 -0.22223,-1.868332 0.12653,-0.126532 2.12627,3.102173 2.81666,4.54768 5.97437,12.508793 -1.61303,25.870293 -19.67502,34.647973 -3.406,1.65523 -6.35398,2.83879 -10.43793,4.19063 -2.77346,0.91805 -9.28366,2.69712 -9.86965,2.69712 -0.0942,0 -0.1255,-0.24971 -0.0709,-0.56592 z"
       id="path16"
       transform="matrix(0.26458333,0,0,0.26458333,158.362,244.475)" />
    <path
       style="fill:#00ae00;fill-opacity:0.1;stroke:none;stroke-width:2.26771;stroke-linecap:round;stroke-linejoin:round;stroke-dasharray:6.80316, 6.80316"
       d="m 249.94881,143.34137 c 1.14815,-1.17338 2.20304,-3.09502 2.88483,-5.25518 0.25693,-0.81407 0.53107,-1.64159 0.60918,-1.83894 0.11389,-0.28774 0.49934,-0.43786 1.94563,-0.75774 0.99198,-0.2194 3.27167,-0.82105 5.06597,-1.337 12.48368,-3.58968 22.22553,-8.91625 28.69074,-15.68731 2.19086,-2.2945 3.52999,-4.12147 4.78864,-6.53316 1.89224,-3.62572 2.61693,-6.69982 2.47539,-10.50051 -0.17287,-4.641835 -1.69097,-8.567033 -5.00775,-12.948059 -0.62661,-0.827665 -1.32541,-1.974999 -1.5529,-2.549633 -0.49842,-1.259029 -1.52851,-3.355968 -2.24805,-4.576307 -1.12941,-1.915487 -1.13514,-2.999049 -0.0225,-4.263036 1.3442,-1.527092 4.7375,-2.871896 10.22357,-4.051725 3.16252,-0.68013 8.24992,-1.516725 17.98574,-2.957667 16.15891,-2.391581 24.75368,-4.176393 32.64964,-6.780103 4.10509,-1.353664 6.19246,-2.190841 9.22896,-3.701441 6.41505,-3.191362 10.70493,-6.961883 13.27182,-11.665045 0.82028,-1.502947 0.90794,-1.345867 0.40807,0.731208 -2.40401,9.989187 -10.66805,18.722181 -24.3019,25.68095 -11.59285,5.91703 -25.27404,9.609157 -41.95438,11.32218 -2.31986,0.238243 -2.59107,0.442415 -1.84515,1.389026 0.26579,0.3373 0.9149,1.279326 1.44247,2.093391 4.36463,6.734888 5.43979,14.195431 3.07186,21.315771 -4.52701,13.61265 -21.72932,25.42992 -45.51679,31.26813 -3.709,0.9103 -7.72185,1.72609 -10.70908,2.17707 -1.0056,0.15181 -1.99581,0.31189 -2.20045,0.35572 -0.2712,0.0581 -0.10406,-0.19421 0.61648,-0.93059 z"
       id="path17"
       transform="matrix(0.26458333,0,0,0.26458333,158.362,244.475)" />
  </g>
</svg>
