<svg baseProfile="tiny" height="500px" version="1.2" viewBox="-1.2,-1.2,2.4,2.4" width="500px" xmlns="http://www.w3.org/2000/svg" xmlns:ev="http://www.w3.org/2001/xml-events" xmlns:xlink="http://www.w3.org/1999/xlink"><defs /><g transform="scale(1,-1)"><circle cx="0" cy="0" fill="none" r="1" stroke="black" stroke-width="0.01" /><path d="M -0.1490422661761743 0.9888308262251285 A 0.3084591489273409 0.3084591489273409 0 0 0 -0.6801727377709192 0.7330518718298265" fill="none" stroke="blue" stroke-width="0.02" /><path d="M -0.43388373911755806 0.9009688679024191 A 0.30845914892734017 0.30845914892734017 0 0 0 -0.8660254037844385 0.5000000000000003" fill="none" stroke="blue" stroke-width="0.02" /><path d="M -0.5633200580636221 0.8262387743159949 A 0.3084591489273409 0.3084591489273409 0 0 0 -0.9308737486442044 0.3653410243663948" fill="none" stroke="blue" stroke-width="0.02" /><path d="M -0.9972037971811801 0.07473009358642467 A 0.22824347439015016 0.22824347439015016 0 0 0 -0.9308737486442042 -0.36534102436639504" fill="none" stroke="blue" stroke-width="0.02" /><path d="M -0.9972037971811801 -0.07473009358642398 A 0.3084591489273409 0.3084591489273409 0 0 0 -0.7818314824680299 -0.6234898018587334" fill="none" stroke="blue" stroke-width="0.02" /><path d="M -0.9749279121818236 -0.22252093395631428 A 0.3084591489273413 0.3084591489273413 0 0 0 -0.6801727377709194 -0.7330518718298263" fill="none" stroke="blue" stroke-width="0.02" /><path d="M -0.8660254037844388 -0.4999999999999998 A 0.22824347439015114 0.22824347439015114 0 0 0 -0.563320058063622 -0.8262387743159949" fill="none" stroke="blue" stroke-width="0.02" /><path d="M 0.14904226617617533 0.9888308262251284 A 0.22824347439015016 0.22824347439015016 0 0 1 0.5633200580636227 0.8262387743159944" fill="none" stroke="blue" stroke-width="0.02" /><path d="M 0.29475517441090476 0.9555728057861406 A 0.3924710788101029 0.3924710788101029 0 0 1 0.866025403784439 0.4999999999999993" fill="none" stroke="blue" stroke-width="0.02" /><path d="M 0.4338837391175584 0.900968867902419 A 0.39247107881010235 0.39247107881010235 0 0 1 0.9308737486442041 0.3653410243663953" fill="none" stroke="blue" stroke-width="0.02" /><path d="M 0.9749279121818236 0.22252093395631417 A 0.22824347439015064 0.22824347439015064 0 0 0 0.78183148246803 0.6234898018587333" fill="none" stroke="blue" stroke-width="0.02" /><path d="M 0.9972037971811801 -0.0747300935864248 A 0.22824347439014966 0.22824347439014966 0 0 1 0.8660254037844384 -0.5000000000000004" fill="none" stroke="blue" stroke-width="0.02" /><path d="M 0.9749279121818235 -0.22252093395631464 A 0.30845914892734017 0.30845914892734017 0 0 1 0.6801727377709195 -0.7330518718298262" fill="none" stroke="blue" stroke-width="0.02" /><path d="M 0.9308737486442042 -0.36534102436639493 A 0.3084591489273409 0.3084591489273409 0 0 1 0.5633200580636224 -0.8262387743159947" fill="none" stroke="blue" stroke-width="0.02" /><path d="M 0.7818314824680297 -0.6234898018587337 A 0.22824347439014966 0.22824347439014966 0 0 1 0.43388373911755795 -0.9009688679024193" fill="none" stroke="blue" stroke-width="0.02" /><line stroke="blue" stroke-width="0.02" x1="0.0" x2="-0.0" y1="1.0" y2="-1.0" /><path d="M -0.7818314824680297 0.6234898018587336 A 1.732050807568876 1.732050807568876 0 0 0 -0.14904226617617522 -0.9888308262251284" fill="none" stroke="blue" stroke-width="0.02" /><path d="M 0.6801727377709191 0.7330518718298266 A 2.076521396572339 2.076521396572339 0 0 1 0.14904226617617397 -0.9888308262251286" fill="none" stroke="blue" stroke-width="0.02" /><path d="M -0.9749279121818236 0.2225209339563145 A 0.7974733888824039 0.7974733888824039 0 0 0 -0.4338837391175583 -0.900968867902419" fill="none" stroke="blue" stroke-width="0.02" /><path d="M 0.9972037971811801 0.07473009358642431 A 0.7974733888824046 0.7974733888824046 0 0 1 0.2947551744109035 -0.955572805786141" fill="none" stroke="blue" stroke-width="0.02" /><path d="M -0.2947551744109042 0.9555728057861407 A 3.241920375769286 3.241920375769286 0 0 0 -0.29475517441090465 -0.9555728057861406" fill="none" stroke="red" stroke-width="0.02" /></g></svg>